<svg xmlns="http://www.w3.org/2000/svg" xmlns:xlink="http://www.w3.org/1999/xlink" viewBox="0 0 251.39 99.79"><defs><style>.cls-1{fill:#fff;}.cls-2{stroke:#231f20;stroke-miterlimit:10;fill:url(#linear-gradient);}.cls-3{fill:url(#linear-gradient-2);}.cls-4{fill:#231f20;}.cls-5{fill:url(#linear-gradient-3);}.cls-6{fill:url(#linear-gradient-4);}</style><linearGradient id="linear-gradient" x1="173.68" y1="101.5" x2="173.68" y2="-0.74" gradientUnits="userSpaceOnUse"><stop offset="0" stop-color="#d8d9d8"/><stop offset="0.2" stop-color="#4e4e4e"/><stop offset="0.25" stop-color="#525252"/><stop offset="0.3" stop-color="#5d5d5d"/><stop offset="0.35" stop-color="#717171"/><stop offset="0.39" stop-color="#8c8c8c"/><stop offset="0.44" stop-color="#aeafae"/><stop offset="0.48" stop-color="#d8d9d8"/><stop offset="0.51" stop-color="#fff"/><stop offset="0.59" stop-color="#d8d9d8"/><stop offset="0.84" stop-color="#4e4e4e"/><stop offset="0.87" stop-color="#6b6b6b"/><stop offset="0.96" stop-color="#b9bab9"/><stop offset="1" stop-color="#d8d9d8"/></linearGradient><linearGradient id="linear-gradient-2" x1="56.71" y1="69.26" x2="56.71" y2="0.1" gradientUnits="userSpaceOnUse"><stop offset="0" stop-color="#221d5e"/><stop offset="0.15" stop-color="#204191"/><stop offset="0.37" stop-color="#478fc8"/><stop offset="0.5" stop-color="#2d66b1"/><stop offset="0.69" stop-color="#253277"/><stop offset="1" stop-color="#233f8a"/></linearGradient><linearGradient id="linear-gradient-3" x1="56.84" y1="100.84" x2="57.66" y2="36.88" gradientUnits="userSpaceOnUse"><stop offset="0" stop-color="#d8d9d8"/><stop offset="0.2" stop-color="#4e4e4e"/><stop offset="0.23" stop-color="#575757"/><stop offset="0.29" stop-color="#707170"/><stop offset="0.35" stop-color="#999a99"/><stop offset="0.43" stop-color="#d2d3d2"/><stop offset="0.43" stop-color="#d8d9d8"/><stop offset="0.59" stop-color="#d8d9d8"/><stop offset="0.84" stop-color="#4e4e4e"/><stop offset="0.85" stop-color="#5e5e5e"/><stop offset="0.86" stop-color="#747373"/><stop offset="0.88" stop-color="#858383"/><stop offset="0.9" stop-color="#908f8f"/><stop offset="0.93" stop-color="#979595"/><stop offset="1" stop-color="#999797"/></linearGradient><linearGradient id="linear-gradient-4" x1="56.87" y1="42.34" x2="57.21" y2="-22.09" gradientUnits="userSpaceOnUse"><stop offset="0" stop-color="#d8d9d8"/><stop offset="0.2" stop-color="#4e4e4e"/><stop offset="0.26" stop-color="#525252"/><stop offset="0.31" stop-color="#5d5d5d"/><stop offset="0.36" stop-color="#717171"/><stop offset="0.41" stop-color="#8c8c8c"/><stop offset="0.46" stop-color="#aeafae"/><stop offset="0.51" stop-color="#d8d9d8"/><stop offset="0.52" stop-color="#fff"/><stop offset="0.59" stop-color="#d8d9d8"/><stop offset="0.84" stop-color="#4e4e4e"/><stop offset="0.93" stop-color="#7a7979"/><stop offset="1" stop-color="#999797"/></linearGradient></defs><title>Asset 1</title><g id="Layer_2" data-name="Layer 2"><g id="Layer_1-2" data-name="Layer 1"><path class="cls-1" d="M235.78,99.7l-4.19-13.22H214.17L209.9,99.7H195.23l20.24-58.31h15.67L251.39,99.7Zm-7.55-25-5.29-16.75-5.36,16.75Zm-52.84,25L165.05,79.59h-7.22V99.7H143.39V41.39h24.72a27.08,27.08,0,0,1,8.67,1.3,18.75,18.75,0,0,1,6.7,3.83,17,17,0,0,1,4.25,6.1,20.71,20.71,0,0,1,1.48,8,20.3,20.3,0,0,1-.73,5.48A18.17,18.17,0,0,1,186.36,71a16.83,16.83,0,0,1-3.47,4A16.64,16.64,0,0,1,179.68,77L191.77,99.7Zm-8.78-31.86A8.45,8.45,0,0,0,172.49,66a6.67,6.67,0,0,0,2-5.22,8,8,0,0,0-.54-3,6.07,6.07,0,0,0-1.52-2.21,6.83,6.83,0,0,0-2.45-1.41,10.92,10.92,0,0,0-3.45-.52h-8.66V67.84ZM96.55,99.7V41.39H111V86.76h24.69V99.7Z"/><path class="cls-1" d="M86.3,1V16.29H44.19l.07,15.06L27.79,44.18V1H86.3m-42,60.75L44.19,83.5H86.3V98.79H27.79V70.37l16.47-8.62M87.3,0H26.79V46.53L45.26,32.2l-.07-14.91H87.3V0Zm-42,60.18L26.79,69.74V99.79H87.3V82.5H45.19l.07-22.32Z"/><polygon class="cls-1" points="64.94 23.92 64.89 46.63 115.03 19.4 50.6 70.23 50.59 50.89 0 77.14 64.94 23.92"/><path class="cls-2" d="M134.27,98.29H98V42.8h11.61V88.17h24.69Zm22.15,0H144.8V42.8h23.3A25.69,25.69,0,0,1,176.33,44a17.17,17.17,0,0,1,6.19,3.54,15.35,15.35,0,0,1,3.91,5.6,20.46,20.46,0,0,1,.69,12.53,16.83,16.83,0,0,1-2,4.5A15.45,15.45,0,0,1,182,73.83a15.89,15.89,0,0,1-4.27,2.54l11.69,21.92H176.26L165.91,78.18h-9.49Zm0-29h10.19A9.78,9.78,0,0,0,173.45,67a8.12,8.12,0,0,0,2.42-6.27,9.44,9.44,0,0,0-.65-3.56,7.61,7.61,0,0,0-1.87-2.71,8.2,8.2,0,0,0-3-1.71,11.91,11.91,0,0,0-3.9-.6H156.42Zm76.21,15.8H213.14l-4.27,13.23H197.22L216.48,42.8h13.65l19.26,55.49H236.82Zm-17-9h14.53l-6.88-21.76h-.7Z"/><polygon class="cls-3" points="63.57 26.74 63.5 48.91 103.12 27.26 51.98 67.45 51.98 48.65 10.29 70.28 63.57 26.74"/><path class="cls-4" d="M63.07,27.79,63,48.06v1.69l1.48-.81L98.09,30.58,52.48,66.43V47.83L51,48.59l-36.67,19L63.07,27.79m45.08-3.85h0Zm0,0L64,48.06l.07-22.38L6.24,73,51.48,49.48v19l56.67-44.54ZM64.07,25.68h0Z"/><polygon class="cls-5" points="28.29 98.29 28.29 70.72 43.76 62.59 43.69 84 85.8 84 85.8 98.29 28.29 98.29"/><path class="cls-4" d="M43.26,63.42l-.07,20.07v1H85.3V97.79H28.79V71l14.47-7.61m1-1.66L27.79,70.42V98.79H86.3V83.5H44.19l.07-21.74Z"/><polygon class="cls-6" points="28.29 1.5 85.8 1.5 85.8 15.79 43.69 15.79 43.76 31.16 28.29 43.32 28.29 1.5"/><path class="cls-4" d="M85.3,2V15.29H43.19v1l.07,14.62L28.79,42.29V2H85.3m1-1H27.79V44.35l16.47-13-.07-15.11H86.3V1Z"/></g></g></svg>